<?xml version="1.0" standalone="no"?><svg xmlns="http://www.w3.org/2000/svg" viewBox="0 0 1440 320"><path fill="#fab9d1" fill-opacity="1" d="M0,160L6.2,181.3C12.3,203,25,245,37,256C49.2,267,62,245,74,250.7C86.2,256,98,288,111,298.7C123.1,309,135,299,148,293.3C160,288,172,288,185,245.3C196.9,203,209,117,222,90.7C233.8,64,246,96,258,117.3C270.8,139,283,149,295,160C307.7,171,320,181,332,165.3C344.6,149,357,107,369,117.3C381.5,128,394,192,406,186.7C418.5,181,431,107,443,112C455.4,117,468,203,480,245.3C492.3,288,505,288,517,256C529.2,224,542,160,554,149.3C566.2,139,578,181,591,197.3C603.1,213,615,203,628,208C640,213,652,235,665,218.7C676.9,203,689,149,702,122.7C713.8,96,726,96,738,96C750.8,96,763,96,775,106.7C787.7,117,800,139,812,170.7C824.6,203,837,245,849,229.3C861.5,213,874,139,886,117.3C898.5,96,911,128,923,138.7C935.4,149,948,139,960,144C972.3,149,985,171,997,149.3C1009.2,128,1022,64,1034,48C1046.2,32,1058,64,1071,96C1083.1,128,1095,160,1108,170.7C1120,181,1132,171,1145,186.7C1156.9,203,1169,245,1182,240C1193.8,235,1206,181,1218,176C1230.8,171,1243,213,1255,202.7C1267.7,192,1280,128,1292,106.7C1304.6,85,1317,107,1329,106.7C1341.5,107,1354,85,1366,80C1378.5,75,1391,85,1403,106.7C1415.4,128,1428,160,1434,176L1440,192L1440,0L1433.8,0C1427.7,0,1415,0,1403,0C1390.8,0,1378,0,1366,0C1353.8,0,1342,0,1329,0C1316.9,0,1305,0,1292,0C1280,0,1268,0,1255,0C1243.1,0,1231,0,1218,0C1206.2,0,1194,0,1182,0C1169.2,0,1157,0,1145,0C1132.3,0,1120,0,1108,0C1095.4,0,1083,0,1071,0C1058.5,0,1046,0,1034,0C1021.5,0,1009,0,997,0C984.6,0,972,0,960,0C947.7,0,935,0,923,0C910.8,0,898,0,886,0C873.8,0,862,0,849,0C836.9,0,825,0,812,0C800,0,788,0,775,0C763.1,0,751,0,738,0C726.2,0,714,0,702,0C689.2,0,677,0,665,0C652.3,0,640,0,628,0C615.4,0,603,0,591,0C578.5,0,566,0,554,0C541.5,0,529,0,517,0C504.6,0,492,0,480,0C467.7,0,455,0,443,0C430.8,0,418,0,406,0C393.8,0,382,0,369,0C356.9,0,345,0,332,0C320,0,308,0,295,0C283.1,0,271,0,258,0C246.2,0,234,0,222,0C209.2,0,197,0,185,0C172.3,0,160,0,148,0C135.4,0,123,0,111,0C98.5,0,86,0,74,0C61.5,0,49,0,37,0C24.6,0,12,0,6,0L0,0Z"></path></svg>